# xmcd
#
# Track frame offsets:
#	150
#	16958
#	46705
#	64333
#	78195
#	104183
#	125058
#	149598
#	170263
#	192773
#	217120
#	250028
#	279878
#	299018
#	322823
#
# Disc length: 4574 seconds
#
# Revision: 1
# Processed by: cddbd v1.5.1PL0 Copyright (c) Steve Scherf et al.
# Submitted via: audiograbber 1.83.01
#
DISCID=e011dc0f
DTITLE=Comppilation 1eme anniversaire - Le Blues Autour du Zinc- Beauvais 2005
DYEAR=2005
DGENRE=Blues
TTITLE0=Durango - Coalminer's Blues
TTITLE1=John Mayall and The Bluesbreakers with Mick Taylor
TTITLE2=Bjorn Berge - Black Jesus
TTITLE3=Sharon Jones And The Dap-Kings - How Do I Let A Good Man Down
TTITLE4=Sinclair - Family Disaster
TTITLE5=Giles - So Much Pain
TTITLE6=Geoff Achison and The Souldiggers - Voodoo
TTITLE7=Nublues - Missy Dee
TTITLE8=Ron Hacker and The Hacksaws - Welfare Store
TTITLE9=Mathis and then Mathematiks - Tabasco Sauce
TTITLE10=Lea Gilmore - I Don't Know Where You Are
TTITLE11=Maurice John Vaughn - Blood Red Sky
TTITLE12=Nuno Mindelis - You Better Believe
TTITLE13=Guy Tortora - My Town
TTITLE14=Slim - Line Papas - You Don't Love Me
EXTD=
EXTT0=
EXTT1=
EXTT2=
EXTT3=
EXTT4=
EXTT5=
EXTT6=
EXTT7=
EXTT8=
EXTT9=
EXTT10=
EXTT11=
EXTT12=
EXTT13=
EXTT14=
PLAYORDER=
